<svg xmlns="http://www.w3.org/2000/svg" viewBox="0 0 260 50" role="img" aria-label="Google 5 estrellas">
<title>Google 5 estrellas</title>

<!-- G Google -->
<g transform="translate(0,0)">
  <path fill="#4285F4" d="M45 25c0-1.7-.1-3-.4-4.4H25v8h11.2c-.2 2-1.8 5-5.3 7.1l-.1.5 7.7 6 .5.1C43.8 38 45 31.9 45 25z"/>
  <path fill="#34A853" d="M25 45c5.6 0 10.4-1.8 13.9-5l-8.1-6.3c-2.2 1.5-5.1 2.6-9 2.6-5.5 0-10.1-3.6-11.8-8.6l-.5.1-8 6.2-.2.5C4.8 41.1 14.2 45 25 45z"/>
  <path fill="#FBBC05" d="M10 27.7c-.5-1.5-.8-3-.8-4.7s.3-3.2.8-4.7l-.1-.6-8.2-6.3-.3.1C.5 14.8 0 18.8 0 23s.5 8.2 1.4 11.5z"/>
  <path fill="#EA4335" d="M25 9.7c5 0 8.4 2.1 10.3 3.9l7.5-7.3C38.2 2 32.4 0 25 0 14.2 0 4.8 3.9 1.3 11.5l8.6 6.8C11.7 13.3 17.2 9.7 25 9.7z"/>
</g>

<!-- Estrellas -->
<g fill="#FFC107" transform="translate(65 5)">
  <path d="M20 0l5.9 12 13.2 1.9-9.6 9.3 2.3 13.1L20 30.1 8.2 36.3l2.3-13.1L1 13.9l13.2-1.9z"/>
  <path transform="translate(38)" d="M20 0l5.9 12 13.2 1.9-9.6 9.3 2.3 13.1L20 30.1 8.2 36.3l2.3-13.1L1 13.9l13.2-1.9z"/>
  <path transform="translate(76)" d="M20 0l5.9 12 13.2 1.9-9.6 9.3 2.3 13.1L20 30.1 8.2 36.3l2.3-13.1L1 13.9l13.2-1.9z"/>
  <path transform="translate(114)" d="M20 0l5.9 12 13.2 1.9-9.6 9.3 2.3 13.1L20 30.1 8.2 36.3l2.3-13.1L1 13.9l13.2-1.9z"/>
  <path transform="translate(152)" d="M20 0l5.9 12 13.2 1.9-9.6 9.3 2.3 13.1L20 30.1 8.2 36.3l2.3-13.1L1 13.9l13.2-1.9z"/>
</g>
</svg>